<?xml version="1.0" encoding="UTF-8" standalone="no"?>
<!-- Created with Inkscape (http://www.inkscape.org/) -->

<svg
   xmlns:dc="http://purl.org/dc/elements/1.1/"
   xmlns:cc="http://creativecommons.org/ns#"
   xmlns:rdf="http://www.w3.org/1999/02/22-rdf-syntax-ns#"
   xmlns:svg="http://www.w3.org/2000/svg"
   xmlns="http://www.w3.org/2000/svg"
   xmlns:xlink="http://www.w3.org/1999/xlink"
   xmlns:sodipodi="http://sodipodi.sourceforge.net/DTD/sodipodi-0.dtd"
   xmlns:inkscape="http://www.inkscape.org/namespaces/inkscape"
   width="744.09448819"
   height="1052.3622047"
   id="svg2"
   version="1.1"
   inkscape:version="0.48.4 r9939"
   sodipodi:docname="mutualInformation.svg">
  <sodipodi:namedview
     id="base"
     pagecolor="#ffffff"
     bordercolor="#666666"
     borderopacity="1.0"
     inkscape:pageopacity="0.0"
     inkscape:pageshadow="2"
     inkscape:zoom="0.69999999"
     inkscape:cx="411.12062"
     inkscape:cy="515.82573"
     inkscape:document-units="px"
     inkscape:current-layer="layer1"
     showgrid="false"
     inkscape:window-width="1280"
     inkscape:window-height="698"
     inkscape:window-x="-8"
     inkscape:window-y="-8"
     inkscape:window-maximized="1" />
  <defs
     id="defs4">
    <linearGradient
       id="linearGradient5688"
       inkscape:collect="always">
      <stop
         id="stop5690"
         offset="0"
         style="stop-color:#0000ff;stop-opacity:1" />
      <stop
         id="stop5692"
         offset="1"
         style="stop-color:#808080;stop-opacity:0;" />
    </linearGradient>
    <marker
       inkscape:stockid="TriangleOutM"
       orient="auto"
       refY="0.0"
       refX="0.0"
       id="TriangleOutM"
       style="overflow:visible">
      <path
         id="path5438"
         d="M 5.77,0.0 L -2.88,5.0 L -2.88,-5.0 L 5.77,0.0 z "
         style="fill-rule:evenodd;stroke:#000000;stroke-width:1.0pt;marker-start:none"
         transform="scale(0.4)" />
    </marker>
    <marker
       inkscape:stockid="TriangleOutL"
       orient="auto"
       refY="0.0"
       refX="0.0"
       id="TriangleOutL"
       style="overflow:visible">
      <path
         id="path5075"
         d="M 5.77,0.0 L -2.88,5.0 L -2.88,-5.0 L 5.77,0.0 z "
         style="fill-rule:evenodd;stroke:#000000;stroke-width:1.0pt;marker-start:none"
         transform="scale(0.8)" />
    </marker>
    <clipPath
       id="clipPath8569"
       clipPathUnits="userSpaceOnUse">
      <rect
         style="fill:#b70000;fill-opacity:1;stroke:none"
         id="rect8571"
         width="412.40005"
         height="358.58585"
         x="271.03455"
         y="108.77392"
         rx="16.650024"
         ry="16.650024" />
    </clipPath>
    <marker
       style="overflow:visible"
       id="Arrow2MendYC"
       refX="0"
       refY="0"
       orient="auto"
       inkscape:stockid="Arrow2MendYC">
      <path
         inkscape:connector-curvature="0"
         transform="scale(-0.6,-0.6)"
         d="M 8.7185878,4.0337352 -2.2072895,0.01601326 8.7185884,-4.0017078 c -1.7454984,2.3720609 -1.7354408,5.6174519 -6e-7,8.035443 z"
         style="font-size:12px;fill:#ff0000;fill-rule:evenodd;stroke:#ff0000;stroke-width:0.625;stroke-linejoin:round"
         id="path9194" />
    </marker>
    <marker
       style="overflow:visible"
       id="Arrow2MendYs"
       refX="0"
       refY="0"
       orient="auto"
       inkscape:stockid="Arrow2MendYs">
      <path
         inkscape:connector-curvature="0"
         transform="scale(-0.6,-0.6)"
         d="M 8.7185878,4.0337352 -2.2072895,0.01601326 8.7185884,-4.0017078 c -1.7454984,2.3720609 -1.7354408,5.6174519 -6e-7,8.035443 z"
         style="font-size:12px;fill:#ff0000;fill-rule:evenodd;stroke:#ff0000;stroke-width:0.625;stroke-linejoin:round"
         id="path9191" />
    </marker>
    <clipPath
       id="clipPath6470"
       clipPathUnits="userSpaceOnUse">
      <rect
         style="fill:#d6d6d6;fill-opacity:1;stroke:none"
         id="rect6472"
         width="303.35092"
         height="125.8299"
         x="-1884.6907"
         y="971.91394"
         rx="10.146089"
         ry="10.350166" />
    </clipPath>
    <marker
       style="overflow:visible"
       id="Arrow1SenduS"
       refX="0"
       refY="0"
       orient="auto"
       inkscape:stockid="Arrow1SenduS">
      <path
         transform="matrix(-0.2,0,0,-0.2,-1.2,0)"
         style="fill:#000000;fill-rule:evenodd;stroke:#000000;stroke-width:1pt;marker-start:none"
         d="M 0,0 5,-5 -12.5,0 5,5 0,0 z"
         id="path11143"
         inkscape:connector-curvature="0" />
    </marker>
    <marker
       style="overflow:visible"
       id="marker4157"
       refX="0"
       refY="0"
       orient="auto"
       inkscape:stockid="Arrow1SenduS">
      <path
         transform="matrix(-0.2,0,0,-0.2,-1.2,0)"
         style="fill:#000000;fill-rule:evenodd;stroke:#000000;stroke-width:1pt;marker-start:none"
         d="M 0,0 5,-5 -12.5,0 5,5 0,0 z"
         id="path4159"
         inkscape:connector-curvature="0" />
    </marker>
    <marker
       style="overflow:visible"
       id="marker4161"
       refX="0"
       refY="0"
       orient="auto"
       inkscape:stockid="Arrow1SenduS">
      <path
         transform="matrix(-0.2,0,0,-0.2,-1.2,0)"
         style="fill:#000000;fill-rule:evenodd;stroke:#000000;stroke-width:1pt;marker-start:none"
         d="M 0,0 5,-5 -12.5,0 5,5 0,0 z"
         id="path4163"
         inkscape:connector-curvature="0" />
    </marker>
    <marker
       style="overflow:visible"
       id="marker4165"
       refX="0"
       refY="0"
       orient="auto"
       inkscape:stockid="Arrow1SenduS">
      <path
         transform="matrix(-0.2,0,0,-0.2,-1.2,0)"
         style="fill:#000000;fill-rule:evenodd;stroke:#000000;stroke-width:1pt;marker-start:none"
         d="M 0,0 5,-5 -12.5,0 5,5 0,0 z"
         id="path4167"
         inkscape:connector-curvature="0" />
    </marker>
    <marker
       style="overflow:visible"
       id="marker4169"
       refX="0"
       refY="0"
       orient="auto"
       inkscape:stockid="Arrow1SenduS">
      <path
         transform="matrix(-0.2,0,0,-0.2,-1.2,0)"
         style="fill:#000000;fill-rule:evenodd;stroke:#000000;stroke-width:1pt;marker-start:none"
         d="M 0,0 5,-5 -12.5,0 5,5 0,0 z"
         id="path4171"
         inkscape:connector-curvature="0" />
    </marker>
    <marker
       style="overflow:visible"
       id="Arrow1Sendu"
       refX="0"
       refY="0"
       orient="auto"
       inkscape:stockid="Arrow1Sendu">
      <path
         transform="matrix(-0.2,0,0,-0.2,-1.2,0)"
         style="fill:#0d9100;fill-rule:evenodd;stroke:#0d9100;stroke-width:1pt;marker-start:none"
         d="M 0,0 5,-5 -12.5,0 5,5 0,0 z"
         id="path5204"
         inkscape:connector-curvature="0" />
    </marker>
    <marker
       style="overflow:visible"
       id="Arrow1SendI"
       refX="0"
       refY="0"
       orient="auto"
       inkscape:stockid="Arrow1SendI">
      <path
         transform="matrix(-0.2,0,0,-0.2,-1.2,0)"
         style="fill:#c80000;fill-rule:evenodd;stroke:#c80000;stroke-width:1pt;marker-start:none"
         d="M 0,0 5,-5 -12.5,0 5,5 0,0 z"
         id="path5127"
         inkscape:connector-curvature="0" />
    </marker>
    <marker
       style="overflow:visible"
       id="Arrow1Send8"
       refX="0"
       refY="0"
       orient="auto"
       inkscape:stockid="Arrow1Send8">
      <path
         transform="matrix(-0.2,0,0,-0.2,-1.2,0)"
         style="fill:#0025ff;fill-rule:evenodd;stroke:#0025ff;stroke-width:1pt;marker-start:none"
         d="M 0,0 5,-5 -12.5,0 5,5 0,0 z"
         id="path5053"
         inkscape:connector-curvature="0" />
    </marker>
    <marker
       style="overflow:visible"
       id="marker4179"
       refX="0"
       refY="0"
       orient="auto"
       inkscape:stockid="Arrow1SendI">
      <path
         transform="matrix(-0.2,0,0,-0.2,-1.2,0)"
         style="fill:#c80000;fill-rule:evenodd;stroke:#c80000;stroke-width:1pt;marker-start:none"
         d="M 0,0 5,-5 -12.5,0 5,5 0,0 z"
         id="path4181"
         inkscape:connector-curvature="0" />
    </marker>
    <marker
       style="overflow:visible"
       id="marker4183"
       refX="0"
       refY="0"
       orient="auto"
       inkscape:stockid="Arrow1SendI">
      <path
         transform="matrix(-0.2,0,0,-0.2,-1.2,0)"
         style="fill:#c80000;fill-rule:evenodd;stroke:#c80000;stroke-width:1pt;marker-start:none"
         d="M 0,0 5,-5 -12.5,0 5,5 0,0 z"
         id="path4185"
         inkscape:connector-curvature="0" />
    </marker>
    <marker
       style="overflow:visible"
       id="marker4187"
       refX="0"
       refY="0"
       orient="auto"
       inkscape:stockid="Arrow1Sendu">
      <path
         transform="matrix(-0.2,0,0,-0.2,-1.2,0)"
         style="fill:#0d9100;fill-rule:evenodd;stroke:#0d9100;stroke-width:1pt;marker-start:none"
         d="M 0,0 5,-5 -12.5,0 5,5 0,0 z"
         id="path4189"
         inkscape:connector-curvature="0" />
    </marker>
    <marker
       style="overflow:visible"
       id="marker4191"
       refX="0"
       refY="0"
       orient="auto"
       inkscape:stockid="Arrow1SendI">
      <path
         transform="matrix(-0.2,0,0,-0.2,-1.2,0)"
         style="fill:#c80000;fill-rule:evenodd;stroke:#c80000;stroke-width:1pt;marker-start:none"
         d="M 0,0 5,-5 -12.5,0 5,5 0,0 z"
         id="path4193"
         inkscape:connector-curvature="0" />
    </marker>
    <marker
       style="overflow:visible"
       id="marker4195"
       refX="0"
       refY="0"
       orient="auto"
       inkscape:stockid="Arrow1Send8">
      <path
         transform="matrix(-0.2,0,0,-0.2,-1.2,0)"
         style="fill:#0025ff;fill-rule:evenodd;stroke:#0025ff;stroke-width:1pt;marker-start:none"
         d="M 0,0 5,-5 -12.5,0 5,5 0,0 z"
         id="path4197"
         inkscape:connector-curvature="0" />
    </marker>
    <marker
       style="overflow:visible"
       id="marker4199"
       refX="0"
       refY="0"
       orient="auto"
       inkscape:stockid="Arrow1Send8">
      <path
         transform="matrix(-0.2,0,0,-0.2,-1.2,0)"
         style="fill:#0025ff;fill-rule:evenodd;stroke:#0025ff;stroke-width:1pt;marker-start:none"
         d="M 0,0 5,-5 -12.5,0 5,5 0,0 z"
         id="path4201"
         inkscape:connector-curvature="0" />
    </marker>
    <marker
       style="overflow:visible"
       id="marker4203"
       refX="0"
       refY="0"
       orient="auto"
       inkscape:stockid="Arrow1Sendu">
      <path
         transform="matrix(-0.2,0,0,-0.2,-1.2,0)"
         style="fill:#0d9100;fill-rule:evenodd;stroke:#0d9100;stroke-width:1pt;marker-start:none"
         d="M 0,0 5,-5 -12.5,0 5,5 0,0 z"
         id="path4205"
         inkscape:connector-curvature="0" />
    </marker>
    <marker
       style="overflow:visible"
       id="marker4207"
       refX="0"
       refY="0"
       orient="auto"
       inkscape:stockid="Arrow1Send8">
      <path
         transform="matrix(-0.2,0,0,-0.2,-1.2,0)"
         style="fill:#0025ff;fill-rule:evenodd;stroke:#0025ff;stroke-width:1pt;marker-start:none"
         d="M 0,0 5,-5 -12.5,0 5,5 0,0 z"
         id="path4209"
         inkscape:connector-curvature="0" />
    </marker>
    <marker
       style="overflow:visible"
       id="marker4211"
       refX="0"
       refY="0"
       orient="auto"
       inkscape:stockid="Arrow1Sendu">
      <path
         transform="matrix(-0.2,0,0,-0.2,-1.2,0)"
         style="fill:#0d9100;fill-rule:evenodd;stroke:#0d9100;stroke-width:1pt;marker-start:none"
         d="M 0,0 5,-5 -12.5,0 5,5 0,0 z"
         id="path4213"
         inkscape:connector-curvature="0" />
    </marker>
    <marker
       inkscape:stockid="Arrow1Send"
       orient="auto"
       refY="0"
       refX="0"
       id="Arrow1Send"
       style="overflow:visible">
      <path
         inkscape:connector-curvature="0"
         id="path3964"
         d="M 0,0 5,-5 -12.5,0 5,5 0,0 z"
         style="fill-rule:evenodd;stroke:#000000;stroke-width:1pt;marker-start:none"
         transform="matrix(-0.2,0,0,-0.2,-1.2,0)" />
    </marker>
    <marker
       inkscape:stockid="Arrow1Send"
       orient="auto"
       refY="0"
       refX="0"
       id="marker3169"
       style="overflow:visible">
      <path
         inkscape:connector-curvature="0"
         id="path3171"
         d="M 0,0 5,-5 -12.5,0 5,5 0,0 z"
         style="fill-rule:evenodd;stroke:#000000;stroke-width:1pt;marker-start:none"
         transform="matrix(-0.2,0,0,-0.2,-1.2,0)" />
    </marker>
    <linearGradient
       inkscape:collect="always"
       xlink:href="#linearGradient4621"
       id="linearGradient4631"
       gradientUnits="userSpaceOnUse"
       x1="346.19888"
       y1="761.45099"
       x2="346.19888"
       y2="952.58984" />
    <linearGradient
       inkscape:collect="always"
       id="linearGradient4621">
      <stop
         style="stop-color:#550000;stop-opacity:1"
         offset="0"
         id="stop4623" />
      <stop
         style="stop-color:#ffffff;stop-opacity:0"
         offset="1"
         id="stop4625" />
    </linearGradient>
    <linearGradient
       inkscape:collect="always"
       xlink:href="#linearGradient5688"
       id="linearGradient4627"
       x1="346.19888"
       y1="761.45099"
       x2="346.19888"
       y2="952.58984"
       gradientUnits="userSpaceOnUse" />
    <marker
       inkscape:stockid="Arrow1MendB"
       orient="auto"
       refY="0"
       refX="0"
       id="Arrow1MendB"
       style="overflow:visible">
      <path
         inkscape:connector-curvature="0"
         id="path4389"
         d="M 0,0 5,-5 -12.5,0 5,5 0,0 z"
         style="fill:#4e4e4e;fill-rule:evenodd;stroke:#4e4e4e;stroke-width:1pt;marker-start:none"
         transform="matrix(-0.4,0,0,-0.4,-4,0)" />
    </marker>
    <marker
       inkscape:stockid="Arrow1Mend2"
       orient="auto"
       refY="0"
       refX="0"
       id="Arrow1Mend2"
       style="overflow:visible">
      <path
         inkscape:connector-curvature="0"
         id="path4386"
         d="M 0,0 5,-5 -12.5,0 5,5 0,0 z"
         style="fill:#4e4e4e;fill-rule:evenodd;stroke:#4e4e4e;stroke-width:1pt;marker-start:none"
         transform="matrix(-0.4,0,0,-0.4,-4,0)" />
    </marker>
    <marker
       inkscape:stockid="StopL0"
       orient="auto"
       refY="0"
       refX="0"
       id="StopL0"
       style="overflow:visible">
      <path
         inkscape:connector-curvature="0"
         id="path4845"
         d="M 0,5.65 0,-5.65"
         style="fill:none;stroke:#b1b1b1;stroke-width:1pt"
         transform="scale(0.8,0.8)" />
    </marker>
    <marker
       inkscape:stockid="StopL"
       orient="auto"
       refY="0"
       refX="0"
       id="StopL"
       style="overflow:visible">
      <path
         inkscape:connector-curvature="0"
         id="path3972"
         d="M 0,5.65 0,-5.65"
         style="fill:none;stroke:#000000;stroke-width:1pt"
         transform="scale(0.8,0.8)" />
    </marker>
    <marker
       inkscape:stockid="StopL"
       orient="auto"
       refY="0"
       refX="0"
       id="marker3192"
       style="overflow:visible">
      <path
         inkscape:connector-curvature="0"
         id="path3194"
         d="M 0,5.65 0,-5.65"
         style="fill:none;stroke:#000000;stroke-width:1pt"
         transform="scale(0.8,0.8)" />
    </marker>
    <marker
       inkscape:stockid="Arrow1Mend"
       orient="auto"
       refY="0"
       refX="0"
       id="Arrow1Mend"
       style="overflow:visible">
      <path
         inkscape:connector-curvature="0"
         id="path3811"
         d="M 0,0 5,-5 -12.5,0 5,5 0,0 z"
         style="fill-rule:evenodd;stroke:#000000;stroke-width:1pt;marker-start:none"
         transform="matrix(-0.4,0,0,-0.4,-4,0)" />
    </marker>
    <marker
       inkscape:stockid="Arrow1Mend9"
       orient="auto"
       refY="0"
       refX="0"
       id="Arrow1Mend9"
       style="overflow:visible">
      <path
         inkscape:connector-curvature="0"
         id="path4256"
         d="M 0,0 5,-5 -12.5,0 5,5 0,0 z"
         style="fill:#b1b1b1;fill-rule:evenodd;stroke:#b1b1b1;stroke-width:1pt;marker-start:none"
         transform="matrix(-0.4,0,0,-0.4,-4,0)" />
    </marker>
    <marker
       inkscape:stockid="StopL"
       orient="auto"
       refY="0"
       refX="0"
       id="marker3200"
       style="overflow:visible">
      <path
         inkscape:connector-curvature="0"
         id="path3202"
         d="M 0,5.65 0,-5.65"
         style="fill:none;stroke:#000000;stroke-width:1pt"
         transform="scale(0.8,0.8)" />
    </marker>
    <marker
       inkscape:stockid="StopL"
       orient="auto"
       refY="0"
       refX="0"
       id="marker3204"
       style="overflow:visible">
      <path
         inkscape:connector-curvature="0"
         id="path3206"
         d="M 0,5.65 0,-5.65"
         style="fill:none;stroke:#000000;stroke-width:1pt"
         transform="scale(0.8,0.8)" />
    </marker>
    <marker
       inkscape:stockid="Arrow1Mendv"
       orient="auto"
       refY="0"
       refX="0"
       id="Arrow1Mendv"
       style="overflow:visible">
      <path
         inkscape:connector-curvature="0"
         id="path5729"
         d="M 0,0 5,-5 -12.5,0 5,5 0,0 z"
         style="marker-start:none;stroke:#008000;stroke-width:1pt;fill:#008000;fill-rule:evenodd"
         transform="matrix(-0.4,0,0,-0.4,-4,0)" />
    </marker>
    <marker
       inkscape:stockid="marker3204M"
       orient="auto"
       refY="0"
       refX="0"
       id="marker3204M"
       style="overflow:visible">
      <path
         inkscape:connector-curvature="0"
         id="path7411"
         d="M 0,5.65 0,-5.65"
         style="stroke:#008000;stroke-width:1pt;fill:none"
         transform="scale(0.8,0.8)" />
    </marker>
  </defs>
  <metadata
     id="metadata7">
    <rdf:RDF>
      <cc:Work
         rdf:about="">
        <dc:format>image/svg+xml</dc:format>
        <dc:type
           rdf:resource="http://purl.org/dc/dcmitype/StillImage" />
        <dc:title />
      </cc:Work>
    </rdf:RDF>
  </metadata>
  <g
     inkscape:label="Layer 1"
     inkscape:groupmode="layer"
     id="layer1">
    <path
       inkscape:connector-curvature="0"
       id="path10766"
       d="m 449.86524,493.3492 c -3.3466,-3.3466 -5.9456,-8.26851 -7.6019,-14.39635 -0.8468,-3.13258 -0.9726,-4.62229 -0.9726,-11.51538 0,-6.87069 0.1281,-8.398 0.9695,-11.55476 1.3817,-5.18394 3.9516,-10.15436 6.9042,-13.35338 2.7386,-2.96724 4.0143,-3.15932 1.629,-0.24522 -5.6262,6.87342 -8.0087,15.82107 -7.4833,28.10668 0.3947,9.22759 2.3593,15.4694 6.6554,21.14217 1.2126,1.60127 2.2049,2.9975 2.2049,3.10266 0,0.5751 -1.004,0.0161 -2.3052,-1.28642 z m 113.1466,1.28642 c 0,-0.10564 0.9944,-1.50139 2.2101,-3.10266 2.7094,-3.56907 4.3684,-7.13127 5.5994,-12.02309 0.8069,-3.20573 0.9377,-4.89456 0.9345,-12.0724 0,-6.4145 -0.1712,-9.01216 -0.7287,-11.22839 -1.3043,-5.18556 -3.1986,-9.40239 -5.6899,-12.66624 -1.3179,-1.72643 -2.266,-3.26704 -2.1072,-3.42373 0.6438,-0.63561 5.3487,5.1228 7.0198,8.59183 3.0555,6.34377 3.6796,9.58743 3.6438,18.94053 -0.035,9.12245 -0.6215,12.28176 -3.3378,17.97439 -2.1275,4.4587 -5.891,9.20103 -7.302,9.20103 -0.1329,0 -0.242,-0.0864 -0.242,-0.19127 z m -299.1411,-0.71916 c 0,-0.32301 0.2229,-1.35781 0.4926,-2.29914 l 0.4904,-1.71187 0.3729,1.38086 c 0.4611,1.70803 1.7039,2.41983 3.6032,2.06352 1.4985,-0.28122 2.3137,-1.2544 2.3137,-2.76235 0,-0.68891 -0.4946,-1.01593 -2.3551,-1.55677 -1.4006,-0.40721 -2.5378,-1.02568 -2.8055,-1.52604 -1.4033,-2.6223 2.6858,-5.95881 5.5512,-4.52945 0.8853,0.44161 1.3842,0.49075 1.7069,0.16807 0.7493,-0.74942 0.882,-0.16535 0.3964,1.74741 -0.4956,1.95211 -1.2099,2.42542 -1.2099,0.80143 0,-1.18607 -1.2235,-2.42015 -2.3993,-2.42015 -1.4545,0 -2.799,1.25137 -2.6538,2.46992 0.1094,0.90851 0.507,1.22192 2.2615,1.77733 2.5471,0.80624 3.3745,2.02768 2.6947,3.97772 -0.4877,1.39927 -2.5835,2.89793 -4.0557,2.90034 -0.5184,0 -1.4275,-0.21929 -2.0199,-0.48916 -0.8317,-0.37887 -1.2269,-0.36686 -1.7321,0.0529 -0.5334,0.44273 -0.6542,0.43457 -0.6522,-0.0449 z m 38.2748,-0.12805 c -0.6233,-0.45762 -0.8309,-1.12572 -0.8309,-2.67464 l 0,-2.06482 -1.7624,-0.12965 c -1.7614,-0.12805 -1.7628,-0.12805 -2.2469,1.79431 -0.6098,2.42206 -0.6113,2.40014 0.1585,2.40014 0.3531,0 0.642,0.1927 0.642,0.428 0,0.23546 -1.0591,0.42801 -2.3537,0.42801 -1.2948,0 -2.3539,-0.19255 -2.3539,-0.42801 0,-0.2353 0.3614,-0.428 0.8032,-0.428 0.6628,0 0.9991,-0.78239 1.9257,-4.48048 1.3216,-5.27422 1.2886,-4.93457 0.4808,-4.93457 -0.353,0 -0.642,-0.21176 -0.642,-0.47059 0,-0.31819 1.2431,-0.42207 3.8403,-0.32091 3.2449,0.12645 3.9834,0.29275 4.7638,1.07353 1.2342,1.23505 0.8181,2.89474 -0.9561,3.81221 -0.9757,0.50452 -1.2006,0.81249 -0.8498,1.16318 0.2625,0.2625 0.4771,1.40167 0.4771,2.53139 0,2.17365 0.8148,2.81662 1.6586,1.30882 0.2294,-0.40991 0.5588,-0.60359 0.7319,-0.43056 0.4393,0.43938 -1.0866,2.03184 -1.9469,2.03184 -0.3893,0 -1.0817,-0.27451 -1.5385,-0.61001 z m 0.6359,-6.93695 c 0.4879,-0.62008 0.887,-1.2805 0.887,-1.4673 0,-0.84609 -1.4811,-1.68466 -2.9754,-1.68466 -1.572,0 -1.6476,0.0688 -2.1093,1.90139 -0.2633,1.04568 -0.4787,2.00862 -0.4787,2.13972 0,0.13125 0.8527,0.23849 1.8947,0.23849 1.5372,0 2.0622,-0.21289 2.7817,-1.12764 z m 176.4562,6.15616 c -2.4422,-2.52371 -3.2989,-5.10791 -3.2989,-9.95012 0,-4.80908 0.6887,-6.92528 3.1756,-9.75774 1.8819,-2.14339 2.4711,-2.0091 0.8717,0.19879 -1.7637,2.43488 -2.5662,5.42372 -2.5662,9.55895 0,4.13537 0.8025,7.12422 2.5662,9.55909 1.5394,2.12483 1.134,2.33644 -0.7484,0.39103 z m 22.7997,-0.0816 c 1.9445,-2.54948 2.7721,-5.40931 2.7721,-9.58119 0,-4.41516 -0.769,-7.36496 -2.5663,-9.84609 -1.5393,-2.12483 -1.1341,-2.33642 0.7484,-0.39103 2.4421,2.52371 3.2989,5.10792 3.2989,9.94997 0,4.84222 -0.8568,7.42643 -3.2989,9.95014 -1.7741,1.83335 -2.3757,1.7818 -0.9542,-0.0816 z m 29.9177,0.0816 c -2.3692,-2.80301 -2.966,-4.80523 -2.966,-9.95012 0,-5.2006 0.5975,-7.12663 3.1204,-10.0569 1.6167,-1.87785 2.2784,-1.42455 0.7828,0.53621 -1.8917,2.48002 -2.5167,4.83709 -2.5247,9.52069 -0.016,4.63732 0.9985,8.31492 2.6961,9.8512 0.4658,0.42161 0.8469,0.92916 0.8469,1.12813 0,0.74669 -0.8186,0.31595 -1.9555,-1.02921 z m 19.9298,1.01528 c 0,-0.20648 0.3028,-0.62697 0.6733,-0.93429 3.9308,-3.26223 4.0113,-15.79865 0.128,-19.93227 -1.272,-1.35413 -0.6554,-1.854 0.7077,-0.5735 1.4954,1.40487 3.1031,4.86205 3.6559,7.86195 0.545,2.95683 -0.026,7.14936 -1.3161,9.6801 -1.409,2.76141 -3.8486,5.23261 -3.8486,3.89801 z m -300.2696,-2.43183 c -0.6329,-0.96614 -0.6432,-1.17022 -0.086,-1.72756 1.022,-1.02183 2.1998,-0.29692 1.9059,1.17294 -0.273,1.36502 0.1837,1.56734 1.2135,0.53765 1.524,-1.52411 2.175,-4.08719 5.1514,-20.28536 2.9271,-15.9288 5.7437,-26.49725 7.5409,-28.29443 1.0238,-1.02376 2.6078,-1.03464 3.5222,-0.024 1.4348,1.58525 0.1721,3.57227 -1.3209,2.07904 -0.5597,-0.55958 -0.5823,-0.7955 -0.128,-1.34228 0.46,-0.55429 0.4328,-0.66346 -0.1657,-0.66346 -1.3689,0 -1.805,1.733 -5.8172,23.10984 -1.5785,8.40984 -3.8716,18.14484 -5.0925,21.61836 -1.1315,3.21934 -2.7178,4.91505 -4.5977,4.91505 -1.0383,0 -1.5962,-0.28747 -2.1258,-1.09547 z m 29.6299,0.1735 c -0.624,-0.89123 -0.2957,-2.51218 0.5055,-2.49505 0.9409,0.0208 1.471,0.84001 1.2116,1.87338 -0.3079,1.22671 -0.1664,1.32274 1.0168,0.68954 1.3427,-0.71852 2.4885,-4.7172 4.5121,-15.74631 2.7708,-15.10046 5.4171,-26.78391 6.8584,-30.28048 1.3776,-3.34146 3.5035,-4.53666 5.043,-2.83551 1.4346,1.58526 0.1721,3.57228 -1.321,2.07905 -0.5817,-0.58182 -0.5944,-0.7811 -0.088,-1.39174 0.5198,-0.62649 0.4911,-0.69355 -0.2365,-0.55334 -1.0702,0.20601 -1.9222,2.95444 -3.4309,11.06626 -4.7709,25.65082 -7.0993,34.91411 -9.4005,37.39717 -1.3444,1.45064 -3.7226,1.55101 -4.6711,0.19703 z m 213.2462,-3.30944 c -0.9441,-0.76447 -0.9722,-0.93109 -0.523,-3.10266 0.6529,-3.15803 0.2479,-3.79285 -2.4206,-3.79285 -2.0665,0 -2.1131,0.0288 -2.5566,1.60496 -0.2486,0.88258 -0.5711,2.32699 -0.7167,3.20973 -0.2369,1.43464 -0.1684,1.60479 0.6456,1.60479 0.5009,0 0.9107,0.19255 0.9107,0.428 0,0.2473 -1.3553,0.42786 -3.2097,0.42786 -3.0605,0 -4.4888,-0.64874 -2.0571,-0.93445 1.1096,-0.12966 1.2127,-0.37439 2.7701,-6.55472 0.8897,-3.53067 1.6229,-6.54304 1.6292,-6.69398 0,-0.15046 -0.4777,-0.39744 -1.0758,-0.54758 -2.1346,-0.53572 -0.5126,-1.10363 3.1453,-1.10139 5.9853,0 8.2131,1.06185 8.2131,3.90025 0,1.22127 -2.4789,3.80068 -3.6525,3.80068 -0.8231,0 -0.7919,0.39248 0.1106,1.38967 0.5681,0.62776 0.7098,1.43768 0.6161,3.52313 -0.067,1.48939 0.051,2.8147 0.2625,2.94531 0.5425,0.33533 2.2355,-0.93476 2.2355,-1.67698 0,-0.33965 0.1925,-0.61767 0.4279,-0.61767 0.7117,0 0.4818,1.06473 -0.4446,2.0592 -1.0788,1.1579 -2.9691,1.2144 -4.3098,0.12805 z m -0.1376,-8.37784 c 1.3616,-0.56903 2.7526,-2.60886 2.7526,-4.03678 0,-1.05898 -1.4357,-1.75621 -3.6161,-1.75621 l -2.2714,0 -0.6938,2.76284 c -0.3817,1.51948 -0.694,2.96372 -0.694,3.20957 0,0.65562 2.7891,0.54486 4.5227,-0.17942 z m 42.1248,8.62144 c 0,-1.03431 1.312,-4.99923 1.6545,-4.99923 0.1852,0 0.254,0.56631 0.1519,1.25841 -0.2555,1.74101 1.4608,3.44919 3.4655,3.44919 2.6096,0 4.9183,-2.81262 4.1078,-5.00419 -0.3072,-0.82993 -2.5207,-1.83272 -4.0631,-1.84072 -0.2531,0 -0.9169,-0.48868 -1.4753,-1.08298 -1.9597,-2.08594 -0.7877,-5.74065 2.3129,-7.21195 1.9445,-0.92275 3.3422,-0.87633 4.6528,0.15526 l 1.0798,0.84945 0.6431,-0.95636 c 1.0199,-1.51708 1.1519,-0.75054 0.4071,2.36268 -0.771,3.22173 -1.3825,3.75523 -1.3825,1.20559 0,-3.30081 -3.6313,-4.49391 -5.8845,-1.93355 -0.9616,1.09274 -1.2293,2.54707 -0.6353,3.45062 0.173,0.26299 1.4192,0.79728 2.7695,1.18719 2.8738,0.82993 4.0145,2.35484 3.563,4.7625 -0.7247,3.86343 -5.7827,6.29333 -8.7596,4.20836 -0.9339,-0.65417 -1.0342,-0.65417 -1.4003,0 -0.4727,0.84449 -1.2078,0.92997 -1.2078,0.14085 z m -79.8144,-0.29163 c 0.1456,-0.23545 0.7272,-0.428 1.2927,-0.428 1.1318,0 0.9733,0.40895 2.9836,-7.70333 0.6124,-2.47137 1.209,-4.81613 1.3259,-5.2102 0.1489,-0.50244 -0.082,-0.75838 -0.769,-0.85601 -0.5399,-0.0768 -0.9814,-0.33165 -0.9814,-0.56711 0,-0.25082 1.8589,-0.47506 4.4935,-0.54165 3.6081,-0.0913 4.7878,0.0353 5.9869,0.64185 2.0153,1.01992 2.5766,2.66808 1.555,4.56514 -1.1606,2.15509 -3.4645,3.25183 -6.8311,3.25183 l -2.8103,0 -0.4519,1.60496 c -0.2485,0.88258 -0.571,2.32699 -0.7167,3.20973 -0.2369,1.43464 -0.1684,1.60479 0.6457,1.60479 0.5009,0 0.9106,0.19255 0.9106,0.428 0,0.24986 -1.4349,0.42786 -3.4489,0.42786 -2.1904,0 -3.3525,-0.15687 -3.1846,-0.42786 z m 12.6578,-8.95421 c 0.8887,-0.88883 1.251,-1.66945 1.251,-2.69626 0,-2.01103 -0.6514,-2.47233 -3.4928,-2.47233 l -2.4656,0 -0.472,1.81895 c -0.2594,1.0004 -0.6365,2.44464 -0.8379,3.20974 l -0.366,1.39078 2.5661,0 c 2.2658,0 2.7127,-0.14565 3.8172,-1.25088 z m 40.1952,8.95421 c 0,-0.23545 0.47,-0.428 1.0447,-0.428 0.5745,0 1.1811,-0.22089 1.3479,-0.4906 0.1668,-0.26985 1.0204,-3.34098 1.897,-6.82475 1.5575,-6.18881 1.5739,-6.33687 0.7186,-6.46364 -0.4816,-0.0721 -0.9604,-0.38704 -1.064,-0.70156 -0.1521,-0.46114 0.8085,-0.54405 4.9618,-0.42801 4.7599,0.13286 5.2339,0.22265 6.2533,1.18144 2.0924,1.96796 0.986,5.40114 -2.1646,6.71766 -0.7768,0.3246 -2.6396,0.58998 -4.1398,0.58998 l -2.7272,0 -0.5055,2.24696 c -0.2781,1.23569 -0.6199,2.67993 -0.7599,3.20959 -0.2162,0.81807 -0.086,0.96293 0.8652,0.96293 0.616,0 1.12,0.19255 1.12,0.428 0,0.24955 -1.4266,0.42786 -3.4237,0.42786 -1.9972,0 -3.4238,-0.17831 -3.4238,-0.42786 z m 12.6159,-8.72533 c 1.2552,-1.25521 1.8304,-3.84982 1.0595,-4.77882 -0.4035,-0.48611 -1.2123,-0.62329 -3.1249,-0.53013 l -2.5805,0.12645 -0.4888,1.92571 c -0.269,1.05929 -0.6214,2.45536 -0.7836,3.10281 l -0.2944,1.17679 2.5953,0 c 2.1653,0 2.7647,-0.16935 3.6174,-1.02201 z m -357.3295,-2.20934 c -2.2056,-2.40798 -3.3306,-5.68863 -3.368,-9.82143 -0.039,-4.31514 0.9054,-7.19546 3.2225,-9.82753 2.1184,-2.40702 2.6109,-2.25336 0.883,0.27546 -1.9604,2.86945 -2.4478,4.80381 -2.4063,9.55207 0.04,4.67142 0.6816,7.04659 2.5688,9.52083 1.5639,2.05041 0.9045,2.27065 -0.9,0.3006 z m 47.282,1.14396 c 0,-0.20648 0.3015,-0.62584 0.6701,-0.93172 1.697,-1.40823 3.1687,-6.06493 3.1765,-10.05065 0,-3.47624 -1.0245,-7.29133 -2.5729,-9.51763 -1.7365,-2.4965 -1.5988,-2.7254 0.4408,-0.73373 3.9062,3.81413 4.8875,11.90593 2.1081,17.37959 -1.3796,2.71659 -3.8226,5.17979 -3.8226,3.85414 z m 122.2007,-1.37221 c -1.9351,-2.14212 -2.7777,-4.05407 -3.2458,-7.36496 -0.6752,-4.77786 0.9141,-10.13196 3.8296,-12.90024 1.6836,-1.59871 1.6634,-1.33668 -0.1265,1.63504 -1.7776,2.95188 -2.6194,6.99729 -2.2357,10.7434 0.3464,3.381 0.9086,5.06421 2.4846,7.43891 0.6825,1.02856 1.1627,1.94843 1.067,2.04416 -0.096,0.096 -0.8938,-0.62265 -1.7737,-1.59631 z m 47.2711,1.38615 c 0,-0.1988 0.3673,-0.69404 0.8163,-1.10043 1.4695,-1.32996 2.7011,-4.94082 2.9279,-8.58432 0.2798,-4.49584 -0.4385,-7.80914 -2.2886,-10.55869 -0.8131,-1.20816 -1.4063,-2.26873 -1.3183,-2.35676 0.4832,-0.48307 2.5768,1.97021 3.7978,4.45038 1.2941,2.62871 1.4043,3.17644 1.3952,6.93807 -0.016,3.46808 -0.175,4.43918 -1.1038,6.43787 -1.526,3.28321 -4.2265,6.33352 -4.2265,4.77388 z m 41.7967,0.0752 c -0.1569,-0.15687 0.9661,-1.58303 2.4965,-3.16812 2.1962,-2.27481 2.7823,-3.15932 2.7823,-4.1978 0,-1.78358 -1.6883,-2.96228 -3.2345,-2.25785 -0.927,0.42241 -0.9931,0.58952 -0.5281,1.33397 0.4211,0.67434 0.422,0.96069 0,1.37846 -0.4176,0.4176 -0.6736,0.38079 -1.2321,-0.17767 -0.6547,-0.65466 -0.6527,-0.78447 0.025,-1.81959 1.0099,-1.54157 2.5916,-2.07602 4.3883,-1.48299 1.6105,0.53141 2.2887,1.4921 2.2887,3.24143 0,0.88707 -0.61,1.7426 -2.4607,3.45158 l -2.4608,2.27226 1.9829,1.6e-4 c 1.6795,1.6e-4 2.0302,-0.14726 2.2922,-0.96261 0.2731,-0.85042 0.3333,-0.87139 0.5157,-0.18024 0.1131,0.43057 0.09,1.24897 -0.052,1.8188 -0.2456,0.97798 -0.4356,1.03608 -3.3903,1.03608 -1.7216,0 -3.2589,-0.12806 -3.4162,-0.28587 z m -9.48,-1.19583 c -2.6784,-0.98407 -3.4702,-2.54291 -2.0254,-3.98764 0.7834,-0.78367 0.901,-3.67807 0.2765,-6.80906 -0.2218,-1.1126 -0.066,-1.57278 0.8474,-2.48513 0.962,-0.96198 1.4653,-1.1134 3.5754,-1.07579 1.3506,0.0241 3.0337,-0.0161 3.7398,-0.0833 1.0238,-0.10078 1.2838,0.04 1.2838,0.69371 0,0.45122 -0.2408,0.90052 -0.535,0.99864 -0.2942,0.0976 -0.5349,-0.12645 -0.5349,-0.49924 0,-0.71115 -1.0709,-0.94037 -1.4591,-0.31244 -0.1249,0.20088 0,0.95173 0.2662,1.66866 0.9526,2.52353 -1.8184,4.90511 -4.6914,4.03229 -1.1909,-0.3619 -1.391,-0.31756 -1.391,0.30764 0,1.27121 0.955,1.75732 3.4516,1.75732 3.107,0 4.7937,1.14141 4.5961,3.11002 -0.2538,2.52755 -4.0641,3.90953 -7.4,2.68361 z m 4.4065,-0.69388 c 1.5398,-0.53668 2.1665,-1.91386 1.2763,-2.80413 -0.8318,-0.83184 -4.6754,-1.24048 -5.8343,-0.62024 -1.4695,0.78639 -1.2211,2.51651 0.4668,3.25006 1.704,0.74078 2.3836,0.76958 4.0912,0.17431 z m -1.2881,-8.18095 c 0.7371,-0.73708 0.6335,-3.58476 -0.1584,-4.37739 -0.7956,-0.79567 -0.8528,-0.80256 -1.9233,-0.22953 -0.6198,0.33165 -0.8279,0.90164 -0.8279,2.26825 0,1.91419 0.5631,2.85215 1.7119,2.85215 0.3766,0 0.9159,-0.23113 1.1983,-0.51348 z m -229.287,8.95069 c 0,-0.18486 0.2524,-0.76253 0.5775,-1.28385 0.9206,-1.47642 1.255,-3.32642 0.5526,-3.05688 -0.7706,0.2958 -1.7347,-0.91459 -1.4075,-1.76724 0.1568,-0.40817 0.6435,-0.62297 1.2249,-0.54038 0.8378,0.11841 0.9815,0.42624 1.0925,2.33579 0.107,1.84521 -0.045,2.39598 -0.9494,3.42374 -0.5925,0.67354 -1.0833,1.07354 -1.0906,0.88882 z m 169.4582,-0.096 c 0,-0.15847 0.3853,-0.77871 0.856,-1.37718 0.8892,-1.13053 1.2082,-3.38068 0.4091,-2.88689 -0.5533,0.34206 -1.6929,-0.55509 -1.6929,-1.33284 0,-0.31597 0.3718,-0.77342 0.8261,-1.01671 1.9636,-1.05082 2.8759,2.31801 1.3819,5.10359 -0.7124,1.32852 -1.7802,2.23431 -1.7802,1.51003 z m -176.1841,-4.06463 c -1.4865,-0.59895 -1.8067,-1.65537 -1.2776,-4.21397 0.4292,-2.07473 0.3967,-2.34763 -0.3434,-2.8888 -0.4497,-0.32861 -1.6166,-0.59752 -2.5932,-0.59752 l -1.7759,0 -0.5055,2.24664 c -0.2782,1.23584 -0.6159,2.6644 -0.7509,3.17468 -0.1946,0.73613 -0.039,0.95717 0.7584,1.06986 2.2427,0.31756 0.8007,1.00567 -2.355,1.12379 -2.5976,0.0976 -3.3175,3.3e-4 -3.1768,-0.428 0.1009,-0.30444 0.6757,-0.61257 1.2788,-0.68443 1.0361,-0.12325 1.1822,-0.47203 2.6418,-6.30263 1.7987,-7.1852 1.8254,-7.47523 0.6891,-7.47523 -0.4709,0 -0.856,-0.19256 -0.856,-0.42801 0,-0.69196 8.3375,-0.53205 10.0735,0.19335 1.7141,0.71612 2.5106,2.29066 1.9307,3.81606 -0.4242,1.11563 -2.1794,2.65016 -3.5168,3.0748 -0.8456,0.26826 -0.8446,0.28571 0.08,1.27058 0.8369,0.8909 0.9056,1.27857 0.6369,3.59468 -0.2613,2.25 -0.2011,2.63447 0.4507,2.88464 0.5288,0.20297 1.0487,-0.0816 1.7514,-0.96036 0.6682,-0.83522 1,-1.02553 1.0015,-0.57463 0,0.83729 -1.763,2.545 -2.5932,2.50818 -0.3378,-0.016 -1.035,-0.19656 -1.5492,-0.40368 z m 0,-9.43072 c 0.6571,-0.51684 1.2309,-1.51003 1.4033,-2.42831 0.4013,-2.13909 -0.8802,-3.21086 -3.6232,-3.03016 -2.1275,0.14086 -1.8307,-0.33757 -3.2055,5.1561 -0.2941,1.17454 -0.2902,1.17678 2.0096,1.17678 1.6725,0 2.6089,-0.23961 3.4158,-0.87441 z m 15.8949,8.57774 c 0.8837,-4.40475 1.9719,-6.27237 1.856,-3.18492 -0.077,2.05617 1.1716,3.27824 3.4102,3.33698 1.8894,0.0496 2.8339,-0.55093 3.7973,-2.41374 1.093,-2.11363 0.4895,-3.17948 -2.2513,-3.97627 -3.0517,-0.88707 -4.0172,-1.84264 -4.0172,-3.97531 0,-3.74723 5.042,-6.62419 7.9901,-4.55923 0.7997,0.56006 0.9666,0.56006 1.4315,0 0.8475,-1.02104 1.3974,-0.74621 1.0862,0.54278 -0.8272,3.42614 -1.1636,4.38667 -1.5371,4.38667 -0.2263,0 -0.4115,-0.74045 -0.4115,-1.64561 0,-2.00622 -1.0191,-3.06199 -2.9554,-3.06199 -2.5528,0 -5.0498,3.7253 -3.357,5.00819 0.2943,0.22297 1.4017,0.65002 2.4609,0.94901 2.6735,0.7547 3.8515,1.94669 3.8515,3.89722 0,3.22621 -3.3857,6.2205 -6.5851,5.82387 -0.9153,-0.11367 -1.9647,-0.50708 -2.3326,-0.8749 -0.6066,-0.60648 -0.7653,-0.57959 -1.7029,0.2881 l -1.0341,0.95703 0.3005,-1.49788 z m 153.4366,0.72316 c -0.9919,-0.50802 -1.0698,-0.77326 -1.0698,-3.64173 0,-3.53211 -0.294,-3.91194 -3.0347,-3.92218 l -1.7508,0 -0.5052,2.2468 c -0.2781,1.23568 -0.6159,2.66424 -0.7509,3.17453 -0.1946,0.73612 -0.039,0.95716 0.7584,1.07001 2.1594,0.30572 0.629,0.99799 -2.2062,0.99799 -2.8856,0 -4.3993,-0.7182 -2.08,-0.98678 1.0845,-0.12486 1.1978,-0.40353 2.8376,-6.95441 l 1.708,-6.82346 -1.0187,0 c -0.5605,0 -1.0188,-0.19256 -1.0188,-0.42785 0,-0.25754 1.747,-0.42769 4.3866,-0.42736 5.0329,0 7.1006,0.71148 7.7815,2.67496 0.5071,1.46202 -0.566,3.09369 -2.9071,4.42013 l -1.5715,0.89042 0.9099,0.82144 c 0.8101,0.73134 0.8799,1.1158 0.636,3.50474 -0.2331,2.28313 -0.166,2.72458 0.4493,2.96068 0.4862,0.18662 1.0214,-0.096 1.6336,-0.86435 1.1094,-1.39125 1.7414,-1.50043 1.0376,-0.1791 -1.0527,1.97613 -2.3551,2.4299 -4.2248,1.47225 z m 0.461,-9.67738 c 1.7267,-1.72674 1.7767,-4.13377 0.1,-4.77162 -0.6335,-0.2409 -1.9219,-0.38062 -2.863,-0.31052 -1.862,0.13926 -1.6225,-0.27531 -2.9819,5.15625 l -0.2947,1.17678 2.3948,0 c 2.0764,0 2.5613,-0.1663 3.6459,-1.25089 z m 15.3735,10.00504 c 0,-0.97222 1.4661,-5.75841 1.7639,-5.75841 0.2068,0 0.3759,0.74045 0.3759,1.6456 0,2.1029 1.1082,3.1558 3.3846,3.2155 1.9233,0.0512 3.6336,-1.2104 4.0857,-3.01222 0.4796,-1.91035 -0.095,-2.65143 -2.619,-3.38565 -3.03,-0.88082 -3.9954,-1.83976 -3.9954,-3.9689 0,-3.74723 5.042,-6.62419 7.9903,-4.55923 0.7996,0.56006 0.9665,0.56006 1.4314,0 0.8473,-1.02104 1.3971,-0.74621 1.086,0.54278 -0.827,3.42614 -1.1635,4.38667 -1.5369,4.38667 -0.2264,0 -0.4116,-0.74045 -0.4116,-1.64561 0,-3.15482 -3.2128,-4.1946 -5.5963,-1.8111 -2.1254,2.12531 -1.5044,3.80197 1.7445,4.71111 1.0594,0.29629 2.3594,0.93909 2.8889,1.42857 2.0276,1.87369 0.6794,6.08669 -2.4693,7.71741 -1.7485,0.90547 -4.3547,0.7427 -5.5593,-0.34733 -0.7472,-0.67611 -0.8271,-0.6657 -1.3536,0.17766 -0.5175,0.8285 -1.2098,1.208 -1.2098,0.66315 z m 241.0608,-0.2036 c -1.2144,-0.48868 -1.5585,-1.8889 -1.0359,-4.21509 0.5346,-2.37885 -0.3888,-3.47944 -2.9191,-3.47944 -1.6352,0 -1.712,0.0641 -2.1671,1.81879 -0.2594,1.00023 -0.6335,2.43375 -0.8312,3.18525 -0.3143,1.19535 -0.2481,1.38294 0.5289,1.49786 0.4885,0.0721 0.9673,0.37214 1.0642,0.66634 0.1313,0.3968 -0.6713,0.53493 -3.1047,0.53493 -2.3952,0 -3.234,-0.14085 -3.1067,-0.52308 0.096,-0.2878 0.631,-0.63097 1.1891,-0.7627 0.9139,-0.21576 1.176,-0.87762 2.6316,-6.64532 0.8891,-3.52298 1.6218,-6.54992 1.6282,-6.72646 0,-0.17656 -0.47,-0.32093 -1.0584,-0.32093 -0.5885,0 -1.0698,-0.20873 -1.0698,-0.46386 0,-0.31517 1.6354,-0.41793 5.1021,-0.32093 4.7099,0.13125 5.1873,0.22265 6.2055,1.1803 1.5479,1.45593 1.4636,3.20381 -0.2306,4.78651 -0.7337,0.68539 -1.8025,1.36373 -2.3752,1.50748 -1.033,0.25929 -1.0343,0.26618 -0.164,0.87586 0.7508,0.5258 0.8773,1.07369 0.8773,3.79988 0,2.47521 0.136,3.1854 0.6114,3.1854 0.6853,0 1.9563,-1.13212 1.9563,-1.74244 0,-0.21864 0.1926,-0.39744 0.4279,-0.39744 0.741,0 0.4672,0.85554 -0.6224,1.94524 -1.1013,1.1014 -1.9567,1.24994 -3.5374,0.61385 z m -0.1179,-9.1932 c 1.4182,-0.73341 2.3729,-3.25519 1.7048,-4.50352 -0.5208,-0.97317 -1.3726,-1.27313 -3.6149,-1.27313 l -1.8388,0 -0.694,2.76268 c -0.3818,1.51947 -0.6941,2.96387 -0.6941,3.20973 0,0.67675 3.7243,0.53476 5.137,-0.19576 z m 17.9729,9.02977 c 0,-1.13372 0.9287,-4.70152 1.3421,-5.15593 0.2151,-0.23674 0.3698,0.17751 0.3698,0.99095 0,1.96076 0.6238,2.91025 2.2687,3.45318 2.7521,0.9082 5.4346,-1.04841 5.4346,-3.96394 0,-1.30148 -0.5453,-1.72468 -3.1189,-2.42127 -2.1585,-0.58407 -3.7285,-2.07041 -3.7285,-3.52986 0,-1.49306 1.3385,-3.71553 2.7707,-4.60084 1.6449,-1.01655 4.3653,-1.12652 5.6475,-0.22857 0.7995,0.56006 0.9665,0.56006 1.4314,0 1.0141,-1.22176 1.1549,-0.61048 0.495,2.14772 -0.3661,1.52987 -0.7959,2.78173 -0.9552,2.78173 -0.1601,0 -0.3984,-0.81168 -0.5316,-1.80391 -0.2808,-2.09393 -1.168,-2.90369 -3.1817,-2.90369 -1.8372,0 -3.5363,1.61039 -3.5363,3.35187 0,1.54861 0.5379,2.01151 3.082,2.65208 2.5413,0.63992 3.5319,1.72115 3.5319,3.85494 0,1.89594 -1.0623,3.56731 -3.1858,5.01268 -1.6606,1.13004 -3.389,1.2264 -5.2002,0.28988 -1.1988,-0.61993 -1.366,-0.61481 -2.1185,0.0657 -0.7687,0.69562 -0.817,0.69611 -0.817,0 z m -476.9228,-0.19368 c -0.2711,-0.43889 0.6837,-0.91812 1.8296,-0.91812 0.5834,0 1.0453,-1.29491 2.3278,-6.52639 0.8798,-3.58941 1.5957,-6.67077 1.5909,-6.84732 0,-0.17656 -0.4907,-0.32092 -1.0791,-0.32092 -0.5883,0 -1.0699,-0.19256 -1.0699,-0.42801 0,-0.2497 1.4266,-0.42801 3.4236,-0.42801 1.8832,0 3.4238,0.17991 3.4238,0.39951 0,0.21977 -0.5297,0.46051 -1.177,0.53509 -1.1335,0.13125 -1.2345,0.35582 -2.7452,6.12671 -1.8937,7.23404 -1.9077,7.39202 -0.6785,7.56665 0.5297,0.0752 0.963,0.32924 0.963,0.56469 0,0.54822 -6.4784,0.81088 -6.809,0.27612 z m 163.7542,-0.15046 c 0.1,-0.30444 0.6754,-0.61257 1.2787,-0.68443 1.036,-0.12325 1.182,-0.47203 2.6416,-6.30263 1.7987,-7.1852 1.8255,-7.47523 0.6891,-7.47523 -0.4707,0 -0.8559,-0.19256 -0.8559,-0.42801 0,-0.25946 1.8616,-0.42801 4.7287,-0.42801 4.9061,0 6.8672,0.51445 7.4162,1.94508 1.3544,3.52922 -2.084,6.61411 -7.3717,6.61411 l -2.5294,0 -0.6941,2.76284 c -0.8566,3.4106 -0.8783,3.14299 0.269,3.30593 0.5296,0.0752 0.9629,0.32924 0.9629,0.56469 0,0.23818 -1.4885,0.48372 -3.3584,0.55366 -2.5977,0.0976 -3.3175,3.3e-4 -3.1767,-0.428 z m 12.5164,-8.92749 c 0.5618,-0.57271 1.1493,-1.74692 1.3056,-2.60951 0.247,-1.36388 0.144,-1.66 -0.7896,-2.27177 -0.7162,-0.46929 -1.7545,-0.65961 -3.1184,-0.57157 l -2.0446,0.13125 -0.7643,2.99572 c -0.4204,1.64769 -0.7687,3.16333 -0.7741,3.3682 0,0.20488 1.1542,0.28812 2.5769,0.18535 2.0223,-0.14565 2.8095,-0.41423 3.6085,-1.22832 z m 69.1257,8.97567 c 0,-0.25738 0.3852,-0.56871 0.8559,-0.6918 0.8105,-0.21208 0.856,-0.58374 0.856,-7.0213 0,-6.51214 -0.037,-6.79737 -0.856,-6.79737 -1.3423,0 -1.0014,-0.71997 0.4814,-1.0164 0.7357,-0.14726 1.5059,-0.26763 1.7119,-0.26763 0.2058,0 0.3744,3.27872 0.3744,7.28605 l 0,7.28589 1.0956,0.41648 c 0.6027,0.22921 0.9765,0.60952 0.8308,0.84545 -0.3671,0.59383 -5.35,0.55718 -5.35,-0.0384 z m 8.7389,-0.33886 c -1.6764,-1.02232 -2.4981,-2.98132 -2.1958,-5.23468 0.2838,-2.11828 1.6334,-3.65247 3.7777,-4.29497 3.2459,-0.97253 6.6549,2.2364 6.2069,5.84277 -0.4542,3.65744 -4.6106,5.62492 -7.7888,3.68688 z m 4.7826,-0.94981 c 0.6251,-0.69099 0.8151,-1.54748 0.8151,-3.67551 0,-2.39966 -0.136,-2.88513 -1.0105,-3.59277 -1.3232,-1.07162 -2.5552,-1.03497 -3.7764,0.11209 -1.3649,1.28209 -1.451,5.88437 -0.1345,7.20056 1.1193,1.11932 3.0719,1.09804 4.1064,-0.0449 z m 177.3791,0.62905 c -1.6544,-2.10355 -0.8256,-5.89879 1.7649,-8.07853 1.3282,-1.11754 3.6553,-1.43383 4.4802,-0.60903 0.3223,0.32237 0.6036,-0.14726 0.9608,-1.60494 0.2779,-1.13324 0.6057,-2.39759 0.7286,-2.80943 0.1624,-0.54389 -0.02,-0.74892 -0.6614,-0.74892 -0.4865,0 -0.8846,-0.17112 -0.8846,-0.38032 0,-0.4493 2.8421,-1.04921 3.3837,-0.71435 0.2054,0.12645 -0.3708,3.16939 -1.2808,6.7612 -0.9098,3.59164 -1.6588,6.96352 -1.6647,7.49317 -0.016,1.50603 1.149,1.13981 1.7016,-0.53493 0.5361,-1.62463 1.53,-2.12899 1.0541,-0.53494 -0.7928,2.65656 -2.7868,3.76852 -4.0431,2.25464 -0.465,-0.5602 -0.632,-0.5602 -1.4317,0 -1.4162,0.99192 -3.0978,0.78992 -4.1076,-0.49362 z m 3.9789,-0.36142 c 0.4402,-0.33341 1.1605,-1.90474 1.6005,-3.49193 0.7213,-2.60101 0.7365,-2.98356 0.1537,-3.87399 -0.7891,-1.20384 -1.072,-1.22112 -2.4348,-0.14886 -1.2318,0.96902 -2.6897,5.51335 -2.2854,7.1239 0.2959,1.17871 1.6851,1.36182 2.9667,0.39119 z m 25.4598,0.6705 c -2.1617,-1.75156 -0.8296,-6.95312 2.2459,-8.76983 1.361,-0.804 3.0035,-0.88515 3.7055,-0.18311 0.5547,0.55461 0.5956,0.4813 1.3578,-2.42527 0.6286,-2.39726 0.5731,-2.78172 -0.4022,-2.78172 -0.4707,0 -0.8559,-0.17575 -0.8559,-0.3904 0,-0.41936 3.3429,-1.11691 3.6898,-0.77007 0.1155,0.11526 -0.5917,3.51674 -1.5699,7.55993 -0.9782,4.04317 -1.671,7.45875 -1.5398,7.59017 0.5403,0.54021 1.594,-0.36031 1.8357,-1.56878 0.1425,-0.71164 0.4275,-1.29395 0.6334,-1.29395 0.5341,0 0.465,0.6665 -0.2457,2.36749 -0.6973,1.66913 -2.2085,2.0179 -3.4337,0.79295 -0.6363,-0.63657 -0.7519,-0.63657 -1.4551,0 -1.025,0.92756 -2.7315,0.87282 -3.9658,-0.12806 z m 4.0864,-0.85026 c 0.7116,-0.78638 1.9492,-4.64565 1.9596,-6.11086 0,-0.39504 -0.2904,-1.01384 -0.6516,-1.37494 -0.9226,-0.9226 -2.5327,-0.12011 -3.3918,1.68946 -0.7786,1.64096 -1.3086,4.98675 -0.9414,5.9436 0.3535,0.92132 2.1366,0.83441 3.0252,-0.14726 z m -390.5951,-1.59085 c -0.8028,-0.80255 0.8314,-1.01993 7.6715,-1.01993 5.8092,0 7.4594,0.12 7.3217,0.53494 -0.1313,0.39375 -2.0969,0.56582 -7.4439,0.65177 -3.9962,0.0641 -7.3935,-0.016 -7.5493,-0.16678 z m 228.2234,-2.73179 c 0,-0.28283 17.6178,-0.42785 51.9972,-0.42785 34.3793,0 51.9969,0.14565 51.9969,0.42785 0,0.28298 -17.6176,0.42801 -51.9969,0.42801 -34.3794,0 -51.9972,-0.14566 -51.9972,-0.42801 z m -268.1769,-2.35692 c -0.1488,-0.38783 0.016,-0.98615 0.3539,-1.32965 0.8564,-0.85617 2.1408,-0.30219 1.9761,0.85234 -0.1623,1.13757 -1.9369,1.50123 -2.33,0.47731 z m 39.6468,0.2172 c 0,-0.26938 2.8529,-0.42801 7.7032,-0.42801 4.8501,0 7.7033,0.15847 7.7033,0.42801 0,0.26955 -2.8532,0.42801 -7.7033,0.42801 -4.8503,0 -7.7032,-0.15846 -7.7032,-0.42801 z m 264.6034,-3.59756 c -2.1684,-2.46321 -3.1204,-5.42373 -3.1204,-9.70235 0,-4.05999 1.0345,-7.15272 3.264,-9.75742 1.8583,-2.17094 2.4454,-1.99759 0.8827,0.26074 -3.4721,5.01732 -3.6756,13.0142 -0.4672,18.34252 0.8088,1.34325 1.3948,2.51812 1.3019,2.61079 -0.092,0.0929 -0.9301,-0.69676 -1.861,-1.75428 z m 47.3786,1.52411 c 0,-0.19896 0.3674,-0.69404 0.8164,-1.10043 0.4491,-0.40639 1.2675,-1.73619 1.819,-2.95507 0.8664,-1.91564 1.0015,-2.88401 0.996,-7.13784 0,-4.20836 -0.1472,-5.23068 -0.9839,-7.05588 -0.5374,-1.17405 -1.386,-2.56948 -1.8853,-3.10104 -0.4994,-0.53158 -0.8084,-1.06634 -0.6864,-1.18832 0.5394,-0.5394 2.5727,1.77479 3.8641,4.39805 1.2785,2.59686 1.4096,3.22254 1.4096,6.72407 0,4.6266 -0.8605,7.45571 -3.0433,10.00598 -1.4381,1.68003 -2.3062,2.21095 -2.3062,1.41048 z m -23.5724,-2.36365 c 1.0265,-1.66112 1.1514,-2.83822 0.3011,-2.83822 -0.8643,0 -1.6057,-1.06907 -1.2977,-1.87162 0.4377,-1.14092 2.2541,-0.87474 2.5681,0.37664 0.3482,1.38709 -0.078,3.62349 -0.9211,4.82635 -1.0648,1.52013 -1.63,1.09163 -0.6504,-0.49315 z m -7.6685,-2.97092 c -0.9925,-0.50851 -1.0698,-0.7723 -1.0698,-3.6563 0,-3.54379 -0.4136,-4.05759 -3.0853,-3.8327 -1.5655,0.13125 -1.5761,0.14566 -2.3235,3.11706 -0.7645,3.03943 -0.6305,3.62509 0.8334,3.64222 0.3082,0 0.4413,0.19912 0.2958,0.43441 -0.3468,0.56102 -6.0755,0.55653 -6.4226,0 -0.1488,-0.24057 0.3147,-0.5495 1.0425,-0.695 1.4441,-0.28875 1.2355,0.21737 3.2368,-7.85906 0.6124,-2.47153 1.2137,-4.83069 1.3361,-5.2427 0.1717,-0.57653 -0.03,-0.74877 -0.8759,-0.74877 -0.6042,0 -1.0987,-0.19271 -1.0987,-0.42801 0,-0.68106 8.3344,-0.53332 10.0364,0.17767 3.4316,1.43384 2.7467,5.35442 -1.1822,6.76697 l -1.2031,0.43249 0.9353,0.87137 c 0.8284,0.77152 0.9101,1.18544 0.7148,3.61806 -0.1786,2.22567 -0.095,2.79502 0.443,3.0015 0.414,0.15846 1.0064,-0.17511 1.5743,-0.88738 1.2017,-1.50715 1.7053,-1.45705 0.9052,0.0896 -0.9338,1.80567 -2.1932,2.17589 -4.0925,1.20303 z m 0.461,-9.67738 c 0.9193,-0.91955 1.2509,-1.65936 1.2509,-2.79229 0,-1.76965 -0.9862,-2.37628 -3.863,-2.37628 -1.6026,0 -1.686,0.0704 -2.1394,1.81894 -0.2595,1.00039 -0.6366,2.44464 -0.8379,3.20973 l -0.3661,1.39079 2.3523,0 c 2.0291,0 2.524,-0.17175 3.6032,-1.25089 z m 15.3735,9.98727 c 0,-0.88067 1.525,-5.74065 1.8013,-5.74065 0.1862,0 0.3384,0.74046 0.3384,1.64544 0,2.12628 1.1046,3.15596 3.4514,3.21742 1.4818,0.0384 1.9653,-0.17734 3.0087,-1.34516 2.169,-2.42752 1.6265,-4.11393 -1.6276,-5.0599 -2.8769,-0.83633 -3.977,-1.86041 -3.9749,-3.70032 0,-3.95227 5.0056,-6.91167 8.0622,-4.77084 0.9089,0.63657 1.0206,0.62906 1.5582,-0.10564 0.9354,-1.27923 1.1441,-0.44385 0.5539,2.21702 -0.6366,2.86928 -1.5311,3.60813 -1.5311,1.26465 0,-3.24654 -3.2663,-4.36986 -5.682,-1.9542 -2.1653,2.16533 -1.4953,3.84054 1.8992,4.74938 1.1444,0.30635 2.4443,0.94741 2.8889,1.42456 1.8271,1.96125 0.4094,6.11214 -2.6239,7.68316 -1.7457,0.90402 -4.3542,0.74317 -5.554,-0.34269 -0.7405,-0.66987 -0.8179,-0.65899 -1.2658,0.17766 -0.4358,0.8144 -1.3029,1.24081 -1.3029,0.64073 z m -54.3508,-0.61577 c 0,-0.24137 0.5591,-0.55061 1.2421,-0.68714 1.2078,-0.24154 1.2846,-0.41825 2.7817,-6.39883 1.7929,-7.16248 1.8197,-7.4541 0.6837,-7.4541 -0.4707,0 -0.8559,-0.19256 -0.8559,-0.42786 0,-0.25946 1.8617,-0.428 4.7288,-0.428 6.2665,0 7.6821,0.69867 7.6821,3.7914 0,2.74043 -3.1677,4.74266 -7.5283,4.75834 l -2.6066,0.0161 -0.5506,2.46064 c -0.3028,1.3535 -0.6397,2.69354 -0.7489,2.97781 -0.1106,0.28892 0.2898,0.63961 0.9075,0.79455 2.0058,0.50356 0.6871,1.04233 -2.5512,1.04233 -1.8894,0 -3.1844,-0.17847 -3.1844,-0.43873 z m 11.9577,-8.32149 c 1.1755,-0.60807 2.1649,-2.4965 2.1649,-4.13265 0,-1.26913 -1.8114,-2.1522 -4.1103,-2.00382 l -2.0448,0.13125 -0.7642,2.99556 c -0.4204,1.64769 -0.7687,3.14028 -0.7741,3.31683 -0.018,0.57637 4.2813,0.33692 5.5285,-0.30797 z"
       style="fill:#000000" />
    <rect
       style="fill:none;stroke:#8a8a8a;stroke-width:2;stroke-miterlimit:4;stroke-opacity:1;stroke-dasharray:none;stroke-dashoffset:0"
       id="rect3794"
       width="72.418877"
       height="72.418877"
       x="330.67947"
       y="567.72388"
       rx="0"
       ry="0" />
    <text
       sodipodi:linespacing="125%"
       id="text3698"
       y="150.46054"
       x="-691.62012"
       style="font-size:32.49827576px;font-style:normal;font-variant:normal;font-weight:normal;font-stretch:normal;line-height:125%;letter-spacing:0px;word-spacing:0px;fill:#008000;fill-opacity:1;stroke:none;font-family:Georgia;-inkscape-font-specification:Georgia"
       xml:space="preserve"
       transform="matrix(0,-1,1,0,0,0)"><tspan
         y="150.46054"
         x="-691.62012"
         id="tspan3700"
         sodipodi:role="line">R</tspan></text>
    <text
       sodipodi:linespacing="125%"
       id="text3702"
       y="155.51669"
       x="-667.96198"
       style="font-size:18.7524929px;font-style:normal;font-variant:normal;font-weight:normal;font-stretch:normal;line-height:125%;letter-spacing:0px;word-spacing:0px;fill:#008000;fill-opacity:1;stroke:none;font-family:Georgia;-inkscape-font-specification:Georgia"
       xml:space="preserve"
       transform="matrix(0,-1,1,0,0,0)"><tspan
         y="155.51669"
         x="-667.96198"
         id="tspan3704"
         sodipodi:role="line">1</tspan></text>
    <text
       xml:space="preserve"
       style="font-size:32.49827576px;font-style:normal;font-variant:normal;font-weight:normal;font-stretch:normal;line-height:125%;letter-spacing:0px;word-spacing:0px;fill:#008000;fill-opacity:1;stroke:none;font-family:Georgia;-inkscape-font-specification:Georgia"
       x="-614.82428"
       y="150.46054"
       id="text3706"
       sodipodi:linespacing="125%"
       transform="matrix(0,-1,1,0,0,0)"><tspan
         sodipodi:role="line"
         id="tspan3708"
         x="-614.82428"
         y="150.46054">R</tspan></text>
    <text
       xml:space="preserve"
       style="font-size:18.7524929px;font-style:normal;font-variant:normal;font-weight:normal;font-stretch:normal;line-height:125%;letter-spacing:0px;word-spacing:0px;fill:#008000;fill-opacity:1;stroke:none;font-family:Georgia;-inkscape-font-specification:Georgia"
       x="-591.16614"
       y="155.51669"
       id="text3710"
       sodipodi:linespacing="125%"
       transform="matrix(0,-1,1,0,0,0)"><tspan
         sodipodi:role="line"
         id="tspan3712"
         x="-591.16614"
         y="155.51669">2</tspan></text>
    <rect
       style="fill:#464646;fill-opacity:1;stroke:#8a8a8a;stroke-width:2;stroke-miterlimit:4;stroke-opacity:1;stroke-dasharray:none;stroke-dashoffset:0"
       id="rect3722"
       width="72.418877"
       height="72.418877"
       x="165.72177"
       y="640.14276"
       rx="0"
       ry="0" />
    <rect
       ry="0"
       rx="0"
       y="640.14276"
       x="238.09262"
       height="72.418877"
       width="72.418877"
       id="rect3724"
       style="fill:none;stroke:#8a8a8a;stroke-width:2;stroke-miterlimit:4;stroke-opacity:1;stroke-dasharray:none;stroke-dashoffset:0" />
    <rect
       ry="0"
       rx="0"
       y="567.72394"
       x="165.72177"
       height="72.418877"
       width="72.418877"
       id="rect3728"
       style="fill:none;stroke:#8a8a8a;stroke-width:2;stroke-miterlimit:4;stroke-opacity:1;stroke-dasharray:none;stroke-dashoffset:0" />
    <rect
       style="fill:#464646;fill-opacity:1;stroke:#8a8a8a;stroke-width:2;stroke-miterlimit:4;stroke-opacity:1;stroke-dasharray:none;stroke-dashoffset:0"
       id="rect3730"
       width="72.418877"
       height="72.418877"
       x="238.09262"
       y="567.72394"
       rx="0"
       ry="0" />
    <text
       xml:space="preserve"
       style="font-size:21.09194565px;font-style:normal;font-variant:normal;font-weight:normal;font-stretch:normal;line-height:125%;letter-spacing:0px;word-spacing:0px;fill:#ffffff;fill-opacity:1;stroke:none;font-family:Georgia;-inkscape-font-specification:Georgia"
       x="184.60654"
       y="681.15802"
       id="text3740"
       sodipodi:linespacing="125%"><tspan
         sodipodi:role="line"
         id="tspan3742"
         x="184.60654"
         y="681.15802">1/2</tspan></text>
    <text
       sodipodi:linespacing="125%"
       id="text3744"
       y="609.12933"
       x="258.32382"
       style="font-size:21.09194565px;font-style:normal;font-variant:normal;font-weight:normal;font-stretch:normal;line-height:125%;letter-spacing:0px;word-spacing:0px;fill:#ffffff;fill-opacity:1;stroke:none;font-family:Georgia;-inkscape-font-specification:Georgia"
       xml:space="preserve"><tspan
         y="609.12933"
         x="258.32382"
         id="tspan3746"
         sodipodi:role="line">1/2</tspan></text>
    <text
       xml:space="preserve"
       style="font-size:31.91066551px;font-style:normal;font-variant:normal;font-weight:normal;font-stretch:normal;line-height:125%;letter-spacing:0px;word-spacing:0px;fill:#800000;fill-opacity:1;stroke:none;font-family:Georgia;-inkscape-font-specification:Georgia"
       x="191.57162"
       y="743.2522"
       id="text3752"
       sodipodi:linespacing="125%"><tspan
         sodipodi:role="line"
         id="tspan3754"
         x="191.57162"
         y="743.2522">S</tspan></text>
    <text
       xml:space="preserve"
       style="font-size:18.41342354px;font-style:normal;font-variant:normal;font-weight:normal;font-stretch:normal;line-height:125%;letter-spacing:0px;word-spacing:0px;fill:#800000;fill-opacity:1;stroke:none;font-family:Georgia;-inkscape-font-specification:Georgia"
       x="208.93881"
       y="748.2171"
       id="text3756"
       sodipodi:linespacing="125%"><tspan
         sodipodi:role="line"
         id="tspan3758"
         x="208.93881"
         y="748.2171">1</tspan></text>
    <text
       sodipodi:linespacing="125%"
       id="text3760"
       y="743.2522"
       x="264.78622"
       style="font-size:31.91066551px;font-style:normal;font-variant:normal;font-weight:normal;font-stretch:normal;line-height:125%;letter-spacing:0px;word-spacing:0px;fill:#800000;fill-opacity:1;stroke:none;font-family:Georgia;-inkscape-font-specification:Georgia"
       xml:space="preserve"><tspan
         y="743.2522"
         x="264.78622"
         id="tspan3762"
         sodipodi:role="line">S</tspan></text>
    <text
       sodipodi:linespacing="125%"
       id="text3764"
       y="748.2171"
       x="282.15341"
       style="font-size:18.41342354px;font-style:normal;font-variant:normal;font-weight:normal;font-stretch:normal;line-height:125%;letter-spacing:0px;word-spacing:0px;fill:#800000;fill-opacity:1;stroke:none;font-family:Georgia;-inkscape-font-specification:Georgia"
       xml:space="preserve"><tspan
         y="748.2171"
         x="282.15341"
         id="tspan3766"
         sodipodi:role="line">2</tspan></text>
    <text
       xml:space="preserve"
       style="font-size:21.91291046px;font-style:normal;font-variant:normal;font-weight:normal;font-stretch:normal;line-height:125%;letter-spacing:0px;word-spacing:0px;fill:#000000;fill-opacity:1;stroke:none;font-family:Georgia;-inkscape-font-specification:Georgia"
       x="172.79526"
       y="550.01294"
       id="text3778"
       sodipodi:linespacing="125%"><tspan
         sodipodi:role="line"
         id="tspan3780"
         x="172.79526"
         y="550.01294"
         style="font-size:17.76455879px"><tspan
   style="font-size:17.76455879px;font-style:italic"
   id="tspan3782">I</tspan>(<tspan
   style="font-size:17.76455879px;font-style:italic;fill:#008000;fill-opacity:1"
   id="tspan3784">R</tspan>;<tspan
   style="font-size:17.76455879px;font-style:italic;fill:#800000;fill-opacity:1"
   id="tspan3786">S</tspan>) = log2(2)</tspan></text>
    <text
       sodipodi:linespacing="125%"
       id="text4720"
       y="550.01294"
       x="502.85281"
       style="font-size:21.91291046px;font-style:normal;font-variant:normal;font-weight:normal;font-stretch:normal;line-height:125%;letter-spacing:0px;word-spacing:0px;fill:#000000;fill-opacity:1;stroke:none;font-family:Georgia;-inkscape-font-specification:Georgia"
       xml:space="preserve"><tspan
         style="font-size:17.76455879px"
         y="550.01294"
         x="502.85281"
         id="tspan4722"
         sodipodi:role="line"><tspan
   id="tspan4724"
   style="font-size:17.76455879px;font-style:italic">I</tspan>(<tspan
   id="tspan4726"
   style="font-size:17.76455879px;font-style:italic;fill:#008000;fill-opacity:1">R</tspan>;<tspan
   id="tspan4728"
   style="font-size:17.76455879px;font-style:italic;fill:#800000;fill-opacity:1">S</tspan>) = log2(1)</tspan></text>
    <text
       xml:space="preserve"
       style="font-size:21.91291046px;font-style:normal;font-variant:normal;font-weight:normal;font-stretch:normal;line-height:125%;letter-spacing:0px;word-spacing:0px;fill:#000000;fill-opacity:1;stroke:none;font-family:Georgia;-inkscape-font-specification:Georgia"
       x="332.15775"
       y="550.01294"
       id="text4730"
       sodipodi:linespacing="125%"><tspan
         sodipodi:role="line"
         id="tspan4732"
         x="332.15775"
         y="550.01294"
         style="font-size:17.76455879px"><tspan
   style="font-size:17.76455879px;font-style:italic"
   id="tspan4734">I</tspan>(<tspan
   style="font-size:17.76455879px;font-style:italic;fill:#008000;fill-opacity:1"
   id="tspan4736">R</tspan>;<tspan
   style="font-size:17.76455879px;font-style:italic;fill:#800000;fill-opacity:1"
   id="tspan4738">S</tspan>) = log2(1.2)</tspan></text>
    <rect
       ry="0"
       rx="0"
       y="640.14276"
       x="330.67947"
       height="72.418877"
       width="72.418877"
       id="rect3788"
       style="fill:#636363;fill-opacity:1;stroke:#aaaaaa;stroke-width:2;stroke-miterlimit:4;stroke-opacity:1;stroke-dasharray:none;stroke-dashoffset:0" />
    <rect
       style="fill:#636363;fill-opacity:1;stroke:#aaaaaa;stroke-width:2;stroke-miterlimit:4;stroke-opacity:1;stroke-dasharray:none;stroke-dashoffset:0"
       id="rect3790"
       width="72.418877"
       height="72.418877"
       x="403.04984"
       y="640.14276"
       rx="0"
       ry="0" />
    <rect
       ry="0"
       rx="0"
       y="567.72388"
       x="403.04984"
       height="72.418877"
       width="72.418877"
       id="rect3796"
       style="fill:#636363;fill-opacity:1;stroke:#aaaaaa;stroke-width:2;stroke-miterlimit:4;stroke-opacity:1;stroke-dasharray:none;stroke-dashoffset:0" />
    <text
       sodipodi:linespacing="125%"
       id="text3806"
       y="681.15802"
       x="349.56424"
       style="font-size:21.09194565px;font-style:normal;font-variant:normal;font-weight:normal;font-stretch:normal;line-height:125%;letter-spacing:0px;word-spacing:0px;fill:#ffffff;fill-opacity:1;stroke:none;font-family:Georgia;-inkscape-font-specification:Georgia"
       xml:space="preserve"><tspan
         y="681.15802"
         x="349.56424"
         id="tspan3808"
         sodipodi:role="line">1/3</tspan></text>
    <rect
       ry="0"
       rx="0"
       y="640.14276"
       x="496.19363"
       height="72.418877"
       width="72.418877"
       id="rect3824"
       style="fill:#999999;fill-opacity:1;stroke:#8a8a8a;stroke-width:2;stroke-miterlimit:4;stroke-opacity:1;stroke-dasharray:none;stroke-dashoffset:0" />
    <rect
       style="fill:#999999;fill-opacity:1;stroke:#8a8a8a;stroke-width:2;stroke-miterlimit:4;stroke-opacity:1;stroke-dasharray:none;stroke-dashoffset:0"
       id="rect3826"
       width="72.418877"
       height="72.418877"
       x="568.56451"
       y="640.14276"
       rx="0"
       ry="0" />
    <rect
       style="fill:#999999;fill-opacity:1;stroke:#8a8a8a;stroke-width:2;stroke-miterlimit:4;stroke-opacity:1;stroke-dasharray:none;stroke-dashoffset:0"
       id="rect3830"
       width="72.418877"
       height="72.418877"
       x="496.19363"
       y="567.72394"
       rx="0"
       ry="0" />
    <rect
       ry="0"
       rx="0"
       y="567.72394"
       x="568.56451"
       height="72.418877"
       width="72.418877"
       id="rect3832"
       style="fill:#999999;fill-opacity:1;stroke:#8a8a8a;stroke-width:2;stroke-miterlimit:4;stroke-opacity:1;stroke-dasharray:none;stroke-dashoffset:0" />
    <text
       sodipodi:linespacing="125%"
       id="text3844"
       y="681.15802"
       x="515.07867"
       style="font-size:21.09194565px;font-style:normal;font-variant:normal;font-weight:normal;font-stretch:normal;line-height:125%;letter-spacing:0px;word-spacing:0px;fill:#ffffff;fill-opacity:1;stroke:none;font-family:Georgia;-inkscape-font-specification:Georgia"
       xml:space="preserve"><tspan
         y="681.15802"
         x="515.07867"
         id="tspan3846"
         sodipodi:role="line">1/4</tspan></text>
    <text
       xml:space="preserve"
       style="font-size:21.09194565px;font-style:normal;font-variant:normal;font-weight:normal;font-stretch:normal;line-height:125%;letter-spacing:0px;word-spacing:0px;fill:#ffffff;fill-opacity:1;stroke:none;font-family:Georgia;-inkscape-font-specification:Georgia"
       x="588.69098"
       y="609.12933"
       id="text3848"
       sodipodi:linespacing="125%"><tspan
         sodipodi:role="line"
         id="tspan3850"
         x="588.69098"
         y="609.12933">1/4</tspan></text>
    <text
       xml:space="preserve"
       style="font-size:21.09194565px;font-style:normal;font-variant:normal;font-weight:normal;font-stretch:normal;line-height:125%;letter-spacing:0px;word-spacing:0px;fill:#ffffff;fill-opacity:1;stroke:none;font-family:Georgia;-inkscape-font-specification:Georgia"
       x="588.69098"
       y="681.15802"
       id="text3856"
       sodipodi:linespacing="125%"><tspan
         sodipodi:role="line"
         id="tspan3858"
         x="588.69098"
         y="681.15802">1/4</tspan></text>
    <text
       sodipodi:linespacing="125%"
       id="text3868"
       y="609.12933"
       x="516.67047"
       style="font-size:21.09194565px;font-style:normal;font-variant:normal;font-weight:normal;font-stretch:normal;line-height:125%;letter-spacing:0px;word-spacing:0px;fill:#ffffff;fill-opacity:1;stroke:none;font-family:Georgia;-inkscape-font-specification:Georgia"
       xml:space="preserve"><tspan
         y="609.12933"
         x="516.67047"
         id="tspan3870"
         sodipodi:role="line">1/4</tspan></text>
    <text
       xml:space="preserve"
       style="font-size:21.09194565px;font-style:normal;font-variant:normal;font-weight:normal;font-stretch:normal;line-height:125%;letter-spacing:0px;word-spacing:0px;fill:#ffffff;fill-opacity:1;stroke:none;font-family:Georgia;-inkscape-font-specification:Georgia"
       x="423.0972"
       y="681.15802"
       id="text4712"
       sodipodi:linespacing="125%"><tspan
         sodipodi:role="line"
         id="tspan4714"
         x="423.0972"
         y="681.15802">1/3</tspan></text>
    <text
       sodipodi:linespacing="125%"
       id="text4716"
       y="609.2962"
       x="423.0972"
       style="font-size:21.09194565px;font-style:normal;font-variant:normal;font-weight:normal;font-stretch:normal;line-height:125%;letter-spacing:0px;word-spacing:0px;fill:#ffffff;fill-opacity:1;stroke:none;font-family:Georgia;-inkscape-font-specification:Georgia"
       xml:space="preserve"><tspan
         y="609.2962"
         x="423.0972"
         id="tspan4718"
         sodipodi:role="line">1/3</tspan></text>
    <flowRoot
       transform="translate(-108.17346,-685.4177)"
       style="font-size:14px;font-style:normal;font-variant:normal;font-weight:normal;font-stretch:normal;text-align:start;line-height:133.00000429%;letter-spacing:0px;word-spacing:0px;text-anchor:start;fill:#000000;fill-opacity:1;stroke:none;font-family:Georgia;-inkscape-font-specification:Georgia"
       id="flowRoot13686"
       xml:space="preserve"><flowRegion
         id="flowRegion13688"><rect
           style="text-align:start;line-height:133.00000429%;text-anchor:start"
           y="994.57782"
           x="220.21326"
           height="297.95038"
           width="585.00543"
           id="rect13690" /></flowRegion><flowPara
         style="font-size:36px;font-weight:normal;text-align:start;line-height:110.00000238%;text-anchor:start;fill:#800000"
         id="flowPara13692">Definition of Mutual Information</flowPara><flowPara
         style="font-size:28px;text-align:start;line-height:110.00000238%;text-anchor:start;fill:#333333"
         id="flowPara13702">Mutual Information (I) between a signal (S) and a response (R), measured in <flowSpan
   style="font-style:italic"
   id="flowSpan13894">bits</flowSpan>:</flowPara><flowPara
         style="font-size:28px;text-align:start;line-height:110.00000238%;text-anchor:start;fill:#333333"
         id="flowPara13706" /><flowPara
         style="font-size:28px;text-align:start;line-height:110.00000238%;text-anchor:start;fill:#333333"
         id="flowPara13708" /></flowRoot>    <text
       sodipodi:linespacing="125%"
       id="text13842"
       y="743.2522"
       x="358.44876"
       style="font-size:31.91066551px;font-style:normal;font-variant:normal;font-weight:normal;font-stretch:normal;line-height:125%;letter-spacing:0px;word-spacing:0px;fill:#800000;fill-opacity:1;stroke:none;font-family:Georgia;-inkscape-font-specification:Georgia"
       xml:space="preserve"><tspan
         y="743.2522"
         x="358.44876"
         id="tspan13844"
         sodipodi:role="line">S</tspan></text>
    <text
       sodipodi:linespacing="125%"
       id="text13846"
       y="748.2171"
       x="375.81595"
       style="font-size:18.41342354px;font-style:normal;font-variant:normal;font-weight:normal;font-stretch:normal;line-height:125%;letter-spacing:0px;word-spacing:0px;fill:#800000;fill-opacity:1;stroke:none;font-family:Georgia;-inkscape-font-specification:Georgia"
       xml:space="preserve"><tspan
         y="748.2171"
         x="375.81595"
         id="tspan13848"
         sodipodi:role="line">1</tspan></text>
    <text
       xml:space="preserve"
       style="font-size:31.91066551px;font-style:normal;font-variant:normal;font-weight:normal;font-stretch:normal;line-height:125%;letter-spacing:0px;word-spacing:0px;fill:#800000;fill-opacity:1;stroke:none;font-family:Georgia;-inkscape-font-specification:Georgia"
       x="431.66336"
       y="743.2522"
       id="text13850"
       sodipodi:linespacing="125%"><tspan
         sodipodi:role="line"
         id="tspan13852"
         x="431.66336"
         y="743.2522">S</tspan></text>
    <text
       xml:space="preserve"
       style="font-size:18.41342354px;font-style:normal;font-variant:normal;font-weight:normal;font-stretch:normal;line-height:125%;letter-spacing:0px;word-spacing:0px;fill:#800000;fill-opacity:1;stroke:none;font-family:Georgia;-inkscape-font-specification:Georgia"
       x="449.03055"
       y="748.2171"
       id="text13854"
       sodipodi:linespacing="125%"><tspan
         sodipodi:role="line"
         id="tspan13856"
         x="449.03055"
         y="748.2171">2</tspan></text>
    <text
       xml:space="preserve"
       style="font-size:31.91066551px;font-style:normal;font-variant:normal;font-weight:normal;font-stretch:normal;line-height:125%;letter-spacing:0px;word-spacing:0px;fill:#800000;fill-opacity:1;stroke:none;font-family:Georgia;-inkscape-font-specification:Georgia"
       x="522.49762"
       y="743.2522"
       id="text13858"
       sodipodi:linespacing="125%"><tspan
         sodipodi:role="line"
         id="tspan13860"
         x="522.49762"
         y="743.2522">S</tspan></text>
    <text
       xml:space="preserve"
       style="font-size:18.41342354px;font-style:normal;font-variant:normal;font-weight:normal;font-stretch:normal;line-height:125%;letter-spacing:0px;word-spacing:0px;fill:#800000;fill-opacity:1;stroke:none;font-family:Georgia;-inkscape-font-specification:Georgia"
       x="539.86481"
       y="748.2171"
       id="text13862"
       sodipodi:linespacing="125%"><tspan
         sodipodi:role="line"
         id="tspan13864"
         x="539.86481"
         y="748.2171">1</tspan></text>
    <text
       sodipodi:linespacing="125%"
       id="text13866"
       y="743.2522"
       x="595.71222"
       style="font-size:31.91066551px;font-style:normal;font-variant:normal;font-weight:normal;font-stretch:normal;line-height:125%;letter-spacing:0px;word-spacing:0px;fill:#800000;fill-opacity:1;stroke:none;font-family:Georgia;-inkscape-font-specification:Georgia"
       xml:space="preserve"><tspan
         y="743.2522"
         x="595.71222"
         id="tspan13868"
         sodipodi:role="line">S</tspan></text>
    <text
       sodipodi:linespacing="125%"
       id="text13870"
       y="748.2171"
       x="613.07941"
       style="font-size:18.41342354px;font-style:normal;font-variant:normal;font-weight:normal;font-stretch:normal;line-height:125%;letter-spacing:0px;word-spacing:0px;fill:#800000;fill-opacity:1;stroke:none;font-family:Georgia;-inkscape-font-specification:Georgia"
       xml:space="preserve"><tspan
         y="748.2171"
         x="613.07941"
         id="tspan13872"
         sodipodi:role="line">2</tspan></text>
  </g>
</svg>
